<?xml version="1.0" standalone="no"?>
<!DOCTYPE svg PUBLIC "-//W3C//DTD SVG 20010904//EN"
 "http://www.w3.org/TR/2001/REC-SVG-20010904/DTD/svg10.dtd">
<svg version="1.0" xmlns="http://www.w3.org/2000/svg"
 width="1000.000000pt" height="1000.000000pt" viewBox="0 0 1000.000000 1000.000000"
 preserveAspectRatio="xMidYMid meet">
<metadata>
Created by potrace 1.11, written by Peter Selinger 2001-2013
</metadata>
<g transform="translate(0.000000,1000.000000) scale(0.100000,-0.100000)"
fill="#000000" stroke="none">
<path d="M1660 6445 c-541 -86 -993 -484 -1144 -1007 -78 -271 -72 -591 16
-858 135 -412 480 -758 888 -894 160 -53 239 -67 420 -73 139 -4 184 -2 285
15 579 100 1028 528 1157 1103 20 90 23 131 23 304 0 272 -30 405 -139 630
-133 272 -347 492 -618 635 -122 64 -306 125 -439 144 -127 19 -332 19 -449 1z"/>
<path d="M7865 6445 c-608 -113 -1066 -582 -1166 -1195 -27 -169 -10 -437 40
-610 150 -524 595 -923 1130 -1014 121 -20 369 -21 482 -1 332 58 646 235 852
482 172 207 281 443 322 698 19 116 19 344 0 460 -82 505 -431 930 -914 1112
-155 58 -252 75 -466 79 -147 2 -221 0 -280 -11z"/>
</g>
</svg>
