<svg xmlns="http://www.w3.org/2000/svg" viewBox="0 0 106.61 131.14"><defs><style>.a{fill:#333;}</style></defs><title>android_logo</title><path class="a" d="M8.2 36.82A8.21 8.21 0 0 0 0 45v32.8a8.2 8.2 0 1 0 16.4 0V45a8.21 8.21 0 0 0-8.2-8.18zM98.41 36.82a8.21 8.21 0 0 0-8.2 8.2v32.8a8.2 8.2 0 0 0 16.4 0V45a8.2 8.2 0 0 0-8.2-8.18zM20.51 102.43h8.2v20.51a8.2 8.2 0 1 0 16.4 0v-20.51h16.4v20.51a8.2 8.2 0 0 0 16.4 0v-20.51h8.2V40.92h-65.6v61.51zM72.68 10.38l4.21-7.3A2.05 2.05 0 1 0 73.34 1l-4.12 7.15a32.73 32.73 0 0 0-31.83 0L33.28 1a2.05 2.05 0 0 0-3.56 2l4.21 7.3A32.74 32.74 0 0 0 20.5 36.82h65.61a32.75 32.75 0 0 0-13.43-26.44zM41 24.52a4.1 4.1 0 1 1 4.1-4.1 4.1 4.1 0 0 1-4.1 4.1zm24.61 0a4.1 4.1 0 1 1 4.1-4.1 4.1 4.1 0 0 1-4.1 4.1z"/></svg>