<svg xmlns="http://www.w3.org/2000/svg" viewBox="0 0 98.93 98.93"><defs><style>.a{fill:#f1f1f1;}.b{fill:#333;}</style></defs><title>android</title><circle class="a" cx="49.46" cy="49.46" r="49.46"/><path class="b" d="M28.46 36.09a3.82 3.82 0 0 0-3.82 3.82v15.28a3.82 3.82 0 1 0 7.64 0V39.91a3.82 3.82 0 0 0-3.82-3.82zM70.46 36.09a3.82 3.82 0 0 0-3.82 3.82v15.28a3.82 3.82 0 1 0 7.64 0V39.91a3.82 3.82 0 0 0-3.82-3.82zM34.19 66.64H38v9.55a3.82 3.82 0 1 0 7.64 0v-9.55h7.64v9.55a3.82 3.82 0 0 0 7.64 0v-9.55h3.82V38H34.19v28.64zM58.48 23.78l2-3.4a1 1 0 1 0-1.65-1l-1.92 3.31a15.24 15.24 0 0 0-14.82 0l-1.91-3.31a1 1 0 0 0-1.66 1l2 3.4a15.25 15.25 0 0 0-6.26 12.31h30.48a15.25 15.25 0 0 0-6.26-12.31zm-14.75 6.59a1.91 1.91 0 1 1 1.91-1.91 1.91 1.91 0 0 1-1.91 1.91zm11.46 0a1.91 1.91 0 1 1 1.91-1.91 1.91 1.91 0 0 1-1.91 1.91z"/></svg>