<svg xmlns="http://www.w3.org/2000/svg" viewBox="0 0 477.54 930.82"><defs><style>.a{fill:#e5e4e8;}.b{fill:#fff;}.c{fill:none;stroke:#c8c4ca;stroke-linecap:round;stroke-linejoin:round;stroke-width:4.81px;}.d{fill:#b6b5ba;}</style></defs><title>android_device</title><path class="a" d="M475.63 289h1.91v-79h-1.91V81.73A81.73 81.73 0 0 0 393.9 0H81.73A81.73 81.73 0 0 0 0 81.73v767.36a81.73 81.73 0 0 0 81.73 81.73H393.9a81.73 81.73 0 0 0 81.73-81.73V289z"/><path class="b" d="M26.63 86.14H449a7.21 7.21 0 0 1 7.21 7.21v751.49a7.21 7.21 0 0 1-7.21 7.21H26.63a7.21 7.21 0 0 1-7.21-7.21V93.35a7.21 7.21 0 0 1 7.21-7.21z"/><path class="c" d="M194.64 875.66H281a12 12 0 0 1 12 12v6.63a12 12 0 0 1-12 12h-86.36a12 12 0 0 1-12-12v-6.63a12 12 0 0 1 12-12z"/><path class="d" d="M187.39 21.6h100.85a3.75 3.75 0 0 1 0 7.5H187.39a3.75 3.75 0 0 1 0-7.5z"/><circle class="d" cx="159.74" cy="23.39" r="7.15"/><circle class="d" cx="310.33" cy="23.09" r="7.15"/><circle class="d" cx="332.78" cy="22.79" r="8.18"/><circle class="d" cx="391.08" cy="30.38" r="6.82"/></svg>