<svg id="Calque_1" xmlns="http://www.w3.org/2000/svg" viewBox="0 0 98.9 98.9"><style>.st0{fill:#FFFFFF;} .st1{fill:#333333;}</style><title>android</title><circle class="st0" cx="49.5" cy="49.5" r="49.5"/><path class="st1" d="M28.5 36.1c-2.1 0-3.8 1.7-3.8 3.8v15.3c0 2.1 1.7 3.8 3.8 3.8s3.8-1.7 3.8-3.8V39.9c0-2.1-1.7-3.8-3.8-3.8zM70.5 36.1c-2.1 0-3.8 1.7-3.8 3.8v15.3c0 2.1 1.7 3.8 3.8 3.8s3.8-1.7 3.8-3.8V39.9c0-2.1-1.7-3.8-3.8-3.8zM34.2 66.6H38v9.6c0 2.1 1.7 3.8 3.8 3.8s3.8-1.7 3.8-3.8v-9.6h7.6v9.6c0 2.1 1.7 3.8 3.8 3.8 2.1 0 3.8-1.7 3.8-3.8v-9.6h3.8V38H34.2v28.6zM58.5 23.8l2-3.4c.4-.4.4-1 0-1.4-.4-.4-1-.4-1.4 0-.1.1-.2.3-.3.5l-1.9 3.3c-4.6-2.6-10.2-2.6-14.8 0l-1.9-3.3c-.4-.4-1-.4-1.4 0-.3.3-.4.6-.2 1l2 3.4c-3.9 2.9-6.3 7.4-6.3 12.3h30.5c-.1-5-2.4-9.6-6.3-12.4zm-14.8 6.6c-1.1 0-1.9-.9-1.9-1.9 0-1.1.9-1.9 1.9-1.9s1.9.9 1.9 1.9c0 1-.8 1.9-1.9 1.9zm11.5 0c-1.1 0-1.9-.9-1.9-1.9 0-1.1.9-1.9 1.9-1.9s1.9.9 1.9 1.9c0 1-.9 1.9-1.9 1.9z"/></svg>