<svg xmlns="http://www.w3.org/2000/svg" viewBox="0 0 98.93 98.93"><defs><style>.a{fill:#f1f1f1;}.b{fill:#221e20;}</style></defs><title>apple</title><circle class="a" cx="49.46" cy="49.46" r="49.46"/><path class="b" d="M52.53 29.68a14.87 14.87 0 0 1-3.76.59 16.57 16.57 0 0 1 2.77-9.2c1.78-2.57 4.75-4.35 8.9-5.24a2.24 2.24 0 0 1 .1.4 2.24 2.24 0 0 0 .1.4v.79a13.24 13.24 0 0 1-1 4.85 14.36 14.36 0 0 1-3.26 4.95 10.58 10.58 0 0 1-3.85 2.46zm16 25a13.57 13.57 0 0 1-.2-15.33 25.38 25.38 0 0 1 4.06-4.25 20.75 20.75 0 0 0-3.76-3.56A12.81 12.81 0 0 0 61 29.28a20.08 20.08 0 0 0-6.13 1.19 18.58 18.58 0 0 1-5.14 1.19 25.3 25.3 0 0 1-4.95-1.09 24.91 24.91 0 0 0-6.33-1.09 12.21 12.21 0 0 0-10.09 5.14c-2.67 3.46-4.06 7.91-4.06 13.36 0 5.74 1.78 11.77 5.24 17.91s7.12 9.2 10.78 9.2a13.68 13.68 0 0 0 4.75-1.19 13.63 13.63 0 0 1 5-1.19 14.58 14.58 0 0 1 5.43 1.19 16.27 16.27 0 0 0 4.95 1.19c3.07 0 6.13-2.37 9.2-7A33.63 33.63 0 0 0 74 59.16a11.71 11.71 0 0 1-5.44-4.45z"/></svg>