<svg xmlns="http://www.w3.org/2000/svg" viewBox="0 0 94.45 112.7"><defs><style>.a{fill:#221e20;}</style></defs><title>apple_logo</title><path class="a" d="M53.62 26.34a28.29 28.29 0 0 1-7.15 1.13c.19-6.77 1.88-12.61 5.27-17.5s9-8.28 16.93-10a4.27 4.27 0 0 1 .19.75 4.27 4.27 0 0 0 .19.75V3a25.18 25.18 0 0 1-1.88 9.22A27.3 27.3 0 0 1 61 21.64a20.13 20.13 0 0 1-7.38 4.7zm30.48 47.6a25.81 25.81 0 0 1-.38-29.16 48.26 48.26 0 0 1 7.71-8.09 39.47 39.47 0 0 0-7.15-6.77 24.36 24.36 0 0 0-14.48-4.33 38.19 38.19 0 0 0-11.67 2.26c-4.52 1.51-7.71 2.26-9.78 2.26-1.51 0-4.7-.75-9.41-2.07a47.38 47.38 0 0 0-12-2.07c-7.71 0-14.11 3.2-19.19 9.78S0 50.8 0 61.15C0 72.06 3.39 83.54 10 95.2c6.77 11.67 13.55 17.5 20.51 17.5a26 26 0 0 0 9-2.26 25.92 25.92 0 0 1 9.6-2.26 27.73 27.73 0 0 1 10.16 2.26c4.14 1.51 7.34 2.26 9.41 2.26 5.83 0 11.67-4.52 17.5-13.36a64 64 0 0 0 8.28-16.93c-3.58-1.13-7.16-4.14-10.36-8.47z"/></svg>