<svg id="Calque_1" xmlns="http://www.w3.org/2000/svg" viewBox="0 0 98.9 98.9"><style>.st0{fill:#FFFFFF;} .st1{fill:#221E20;}</style><title>apple</title><circle class="st0" cx="49.5" cy="49.5" r="49.5"/><path class="st1" d="M52.5 29.7c-1.2.4-2.5.6-3.8.6 0-3.3 1-6.5 2.8-9.2 1.8-2.6 4.8-4.4 8.9-5.2 0 .1.1.3.1.4s.1.3.1.4v.8c0 1.7-.4 3.3-1 4.9-.7 1.9-1.8 3.5-3.3 5-1 .9-2.3 1.8-3.8 2.3zm16 25c-3.2-4.6-3.3-10.7-.2-15.3 1.2-1.6 2.5-3 4.1-4.2-1.1-1.3-2.4-2.5-3.8-3.6-2.2-1.5-4.9-2.3-7.6-2.3-2.1.1-4.2.5-6.1 1.2-1.6.6-3.4 1-5.1 1.2-1.7-.2-3.3-.6-5-1.1-2.1-.6-4.2-1-6.3-1.1-4 0-7.8 1.9-10.1 5.1-2.7 3.5-4.1 7.9-4.1 13.4 0 5.7 1.8 11.8 5.2 17.9s7.1 9.2 10.8 9.2c1.6-.1 3.3-.5 4.8-1.2 1.6-.7 3.3-1.1 5-1.2 1.9 0 3.7.4 5.4 1.2 1.6.7 3.2 1.1 5 1.2 3.1 0 6.1-2.4 9.2-7 1.9-2.7 3.4-5.8 4.3-8.9-2.2-.9-4.1-2.5-5.5-4.5z"/></svg>