<svg xmlns="http://www.w3.org/2000/svg" viewBox="0 0 148.73 47.63"><defs><style>.a{fill:#2c317e;}.b{fill:#d9006b;}.c{fill:#5db075;}</style></defs><title>ellipsis1</title><circle class="a" cx="125.33" cy="23.4" r="23.4"/><circle class="b" cx="23.4" cy="23.4" r="23.4"/><path class="c" d="M57.76 31.33a16.62 16.62 0 0 0 33.23 0v-.65a16.65 16.65 0 0 0-.51-3.77A8.25 8.25 0 0 0 83 20.57h-.4a8.4 8.4 0 0 0-8.22 6.7 8.39 8.39 0 0 0-8.22-6.7h-.44a8.25 8.25 0 0 0-7.45 6.33 16.65 16.65 0 0 0-.51 3.78v.65z"/></svg>