<svg xmlns="http://www.w3.org/2000/svg" viewBox="0 0 198.01 63.41"><defs><style>.a{fill:#e5007e;}.b{fill:#009ee2;}.c{fill:#ffec00;}</style></defs><title>ellipsis0</title><circle class="a" cx="166.85" cy="31.15" r="31.15"/><circle class="b" cx="31.15" cy="31.15" r="31.15"/><path class="c" d="M76.9 41.71a22.12 22.12 0 0 0 44.24 0v-.87a22.15 22.15 0 0 0-.67-5 11 11 0 0 0-9.92-8.43h-.58A11.18 11.18 0 0 0 99 36.3a11.18 11.18 0 0 0-10.95-8.93h-.58a11 11 0 0 0-9.92 8.43 22.19 22.19 0 0 0-.67 5v.87z"/></svg>