<svg xmlns="http://www.w3.org/2000/svg" viewBox="0 0 216.46 75.11"><defs><style>.a{fill:#fff;}.b{fill:none;}.c{fill:url(#a);}.d{fill:url(#b);}.e{fill:url(#c);}.f{fill:url(#d);}</style><linearGradient id="a" x1="1090.14" y1="92.22" x2="1067.06" y2="77.78" gradientTransform="rotate(45 613.728 -1218.086)" gradientUnits="userSpaceOnUse"><stop offset="0" stop-color="#d6ffa1"/><stop offset=".33" stop-color="#93e2a7"/><stop offset="1" stop-color="#00a3b5"/></linearGradient><linearGradient id="b" x1="1076.72" y1="79.88" x2="1106.64" y2="87.71" gradientTransform="rotate(45 613.728 -1218.086)" gradientUnits="userSpaceOnUse"><stop offset="0" stop-color="#ff177b"/><stop offset=".67" stop-color="#ffa976"/><stop offset="1" stop-color="#ffec73"/></linearGradient><linearGradient id="c" x1="1093.42" y1="103.17" x2="1060.98" y2="84.09" gradientTransform="rotate(45 613.728 -1218.086)" gradientUnits="userSpaceOnUse"><stop offset="0" stop-color="#63ffd4"/><stop offset=".49" stop-color="#32a0ba"/><stop offset=".83" stop-color="#1262a9"/><stop offset="1" stop-color="#064aa2"/></linearGradient><linearGradient id="d" x1="1105.2" y1="88.02" x2="1085.23" y2="114.34" gradientTransform="rotate(45 613.728 -1218.086)" gradientUnits="userSpaceOnUse"><stop offset="0" stop-color="#ff4521"/><stop offset=".34" stop-color="#d43e65"/><stop offset=".79" stop-color="#9f36b9"/><stop offset="1" stop-color="#8a33db"/></linearGradient></defs><title>gplay</title><path d="M215.75 63.75c0 6.53-4.8 10.59-11.32 10.59H12.57A11.83 11.83 0 0 1 .75 62.53v-50A11.82 11.82 0 0 1 12.57.75h191.81c6.53 0 11.37 5.3 11.37 11.82v51.18z"/><path class="a" d="M204.38 75.11H12.57A12.59 12.59 0 0 1 0 62.53v-50A12.59 12.59 0 0 1 12.57 0h191.81c6.77 0 12.07 5.52 12.07 12.57v51.18c.01 6.8-4.85 11.36-12.07 11.36zM12.57 1.5A11.09 11.09 0 0 0 1.5 12.57v50a11.09 11.09 0 0 0 11.07 11.04h191.81c6.32 0 10.57-4 10.57-9.84v-51.2c0-6.21-4.65-11.07-10.57-11.07H12.57z"/><path class="a" d="M147.65 53.58l-1.62 1.52c-.37.21-.74.44-1.11.61a7.81 7.81 0 0 1-3.27.64 7.22 7.22 0 0 1-4.49-1.32 8.72 8.72 0 0 1-3.41-7.1 7.66 7.66 0 0 1 7.73-7.8 6.57 6.57 0 0 1 3.48.94 5.63 5.63 0 0 1 2.36 3.34l-7.93 3.21-2.6.2c.84 4.29 3.74 6.78 6.95 6.78a8.32 8.32 0 0 0 3.88-1.06s.19-.11.03.04zm-4.79-8.53a1.06 1.06 0 0 0 1-.91 3.36 3.36 0 0 0-3.34-2.9c-1.35 0-3.88 1.05-3.88 4.69 0 .57.07 1.18.1 1.78z"/><path class="a" d="M131.06 53.32c0 1.31.23 1.52 1.34 1.62.58.07 1.15.1 1.73.17l-1.25.74h-5.95c.78-1 .91-1.11.91-1.79V33.25h-2.62l2.53-1.22h4.82a2.33 2.33 0 0 0-1.49 2.15v19.14z"/><path class="a" d="M121.84 41.75a5.68 5.68 0 0 1 2.39 4.55c0 2.5-1.41 3.68-2.83 4.79a2.38 2.38 0 0 0-.94 1.65 1.86 1.86 0 0 0 .88 1.45l1.22.94c1.48 1.25 2.83 2.4 2.83 4.73 0 3.18-3.07 6.38-8.88 6.38-4.89 0-7.25-2.33-7.25-4.82a4.84 4.84 0 0 1 2.6-4.12c2.09-1.28 4.93-1.45 6.44-1.55a3.56 3.56 0 0 1-1-2.3 3 3 0 0 1 .34-1.31c-.37 0-.74.07-1.08.07a5.34 5.34 0 0 1-5.6-5.3 6.05 6.05 0 0 1 2.16-4.52 9.21 9.21 0 0 1 6-1.86h7l-2.18 1.22h-2.1zm-2.39 15a5.22 5.22 0 0 0-.78 0 13.39 13.39 0 0 0-3.54.54c-.75.27-2.91 1.08-2.91 3.48s2.33 4.11 5.94 4.11c3.24 0 5-1.55 5-3.64-.04-1.74-1.15-2.65-3.71-4.49zm1-6.41a3.4 3.4 0 0 0 .85-2.47c0-2.43-1.44-6.21-4.25-6.21a3.14 3.14 0 0 0-2.39 1.09 3.89 3.89 0 0 0-.74 2.49c0 2.26 1.32 6 4.22 6a3.45 3.45 0 0 0 2.28-.89zM100.92 56.29a8 8 0 0 1-8.23-8c0-4.42 3.61-8.2 8.74-8.2a7.89 7.89 0 0 1 8.07 8 8.24 8.24 0 0 1-8.58 8.2zm4.22-2.73a6.06 6.06 0 0 0 1-3.74c0-3-1.42-8.64-5.6-8.64a4.71 4.71 0 0 0-3 1.15 5.1 5.1 0 0 0-1.55 4.12c0 3.33 1.65 8.83 5.74 8.83a4.32 4.32 0 0 0 3.41-1.72zM82.96 56.29a8 8 0 0 1-8.23-8c0-4.42 3.61-8.2 8.74-8.2a7.89 7.89 0 0 1 8.06 8 8.24 8.24 0 0 1-8.57 8.2zm4.22-2.73a6.1 6.1 0 0 0 1-3.74c0-3-1.42-8.64-5.6-8.64a4.69 4.69 0 0 0-3 1.15 5.1 5.1 0 0 0-1.55 4.12c0 3.33 1.65 8.83 5.74 8.83a4.32 4.32 0 0 0 3.41-1.72zM72.58 55.12l-4.52 1a33.08 33.08 0 0 1-5.22.54c-8.73.03-12.09-6.39-12.09-11.42 0-6.14 4.71-11.83 12.78-11.83a18.54 18.54 0 0 1 4.85.66 12.19 12.19 0 0 1 4.17 2l-2.63 2.5-1.07.18.79-1.26a9 9 0 0 0-6.77-3c-5 0-8.76 3.79-8.76 9.33 0 5.95 4.3 11.54 11.19 11.54a9.41 9.41 0 0 0 4-.79v-5.1l-4.75.28 2.53-1.36h6.67l-.82.79a.72.72 0 0 0-.31.5c0 .29-.06 1.2-.06 1.53v3.86zM157.38 53.75v8.6h-1.71v-21.9h1.71v2.49a6.79 6.79 0 0 1 5.5-2.89c4.23 0 7.08 3.21 7.08 8.29s-2.85 8.33-7.08 8.33a6.76 6.76 0 0 1-5.5-2.92zm10.75-5.38c0-3.83-2-6.75-5.54-6.75a6.77 6.77 0 0 0-5.21 3.24v7c.91 1.51 3 3.3 5.21 3.3 3.54-.02 5.54-2.97 5.54-6.81zM172.3 56.28V34.41h1.71v21.88h-1.71zM193.16 60.91a4 4 0 0 0 1.38.26c1 0 1.77-.43 2.42-1.94l1.25-2.82-6.73-16h1.9l5.77 13.83 5.71-13.83h1.93l-8.19 19.34c-.85 2-2.19 2.95-4 2.95a6.81 6.81 0 0 1-1.71-.23zM188.17 56.24c-.12-.55-.2-1-.26-1.44a9.46 9.46 0 0 1-.08-1.23 7.3 7.3 0 0 1-5.92 3 5.59 5.59 0 0 1-3.87-1.24 4.32 4.32 0 0 1-1.38-3.37 4 4 0 0 1 2-3.45 9.22 9.22 0 0 1 5.19-1.32h4v-2a3.3 3.3 0 0 0-1.16-2.67 5 5 0 0 0-3.27-1 5.18 5.18 0 0 0-3.13.88 2.69 2.69 0 0 0-1.19 2.22h-1.75v-.08a3.67 3.67 0 0 1 1.65-3.15 7.17 7.17 0 0 1 4.54-1.36 7.08 7.08 0 0 1 4.5 1.34 4.58 4.58 0 0 1 1.7 3.84v7.81a11.9 11.9 0 0 0 .1 1.63 10.4 10.4 0 0 0 .34 1.57h-2zM182.11 55a6.42 6.42 0 0 0 3.56-1 4.89 4.89 0 0 0 2.16-2.47v-3h-4a6.56 6.56 0 0 0-3.79 1 3 3 0 0 0-1.5 2.46 2.72 2.72 0 0 0 1 2.17 3.86 3.86 0 0 0 2.58.83z"/><path class="b" d="M28.5 47.46l5.47-5.48-5.47 5.48-17.48-17.48L28.5 47.46 10.99 64.97 28.5 47.46l5.5 5.5-5.5-5.5"/><path class="c" d="M33.97 41.98L12.64 30.25a2.09 2.09 0 0 0-1.61-.27L28.5 47.46z"/><path class="d" d="M34 52.96l7.28-4c1.48-.81 1.48-2.14 0-3l-7.31-4-5.48 5.48z"/><path class="e" d="M11.02 29.99a1.75 1.75 0 0 0-1.07 1.85v31.28a1.77 1.77 0 0 0 1 1.85L28.5 47.46z"/><path class="f" d="M10.99 64.97a2.06 2.06 0 0 0 1.65-.22L34 52.96l-5.5-5.5z"/><path class="a" d="M50.75 21.8V11.13h4c3.35 0 5.59 2.21 5.59 5.33a5.2 5.2 0 0 1-5.59 5.34h-4zm7.63-5.35a3.45 3.45 0 0 0-3.63-3.7h-2.08v7.4h2.08a3.51 3.51 0 0 0 3.68-3.69zM62.56 21.8V11.13h1.87V21.8h-1.87zM66.41 20.3l1.06-1.46a4.59 4.59 0 0 0 3.38 1.49c1.54 0 2.13-.75 2.13-1.47 0-2.24-6.21-.85-6.21-4.77 0-1.78 1.54-3.14 3.89-3.14a5.52 5.52 0 0 1 4 1.51l-1.08 1.39a4.35 4.35 0 0 0-3.11-1.23c-1.09 0-1.79.54-1.79 1.33 0 2 6.21.77 6.21 4.74 0 1.78-1.26 3.31-4.13 3.31a5.84 5.84 0 0 1-4.35-1.7zM77 21.8V11.13h4.75a3.24 3.24 0 0 1 3.47 3.35 3.24 3.24 0 0 1-3.47 3.32h-2.87v4H77zm6.26-7.33a1.67 1.67 0 0 0-1.81-1.72h-2.57v3.4h2.57a1.67 1.67 0 0 0 1.81-1.68zM86.68 16.47a5.46 5.46 0 1 1 10.92 0 5.46 5.46 0 1 1-10.92 0zm9 0a3.55 3.55 0 1 0-7.08 0 3.55 3.55 0 1 0 7.08 0zM107.23 21.8l-5.57-7.64v7.64h-1.91V11.13h2l5.46 7.4v-7.4h1.87V21.8h-1.81zM111.75 21.8V11.13h1.87V21.8h-1.87zM116.25 21.8V11.13h5.25a2.73 2.73 0 0 1 3 2.72 2.41 2.41 0 0 1-1.86 2.45 2.6 2.6 0 0 1 2.11 2.61 2.8 2.8 0 0 1-3.11 2.9h-5.39zm6.37-7.65a1.35 1.35 0 0 0-1.49-1.4h-3v2.75h3a1.33 1.33 0 0 0 1.49-1.35zm.21 4.51a1.47 1.47 0 0 0-1.62-1.49h-3.09v3h3.09a1.43 1.43 0 0 0 1.62-1.5zM126.91 21.8V11.13h1.84v9h4.71v1.65h-6.58zM135.53 21.8V11.13h7.31v1.62h-5.44v2.75h5.35v1.65h-5.33v3h5.44v1.65h-7.31zM149 20.3l1.06-1.46a4.59 4.59 0 0 0 3.38 1.49c1.54 0 2.13-.75 2.13-1.47 0-2.24-6.21-.85-6.21-4.77 0-1.78 1.54-3.14 3.89-3.14a5.52 5.52 0 0 1 4 1.51l-1.06 1.39a4.35 4.35 0 0 0-3.1-1.23c-1.09 0-1.79.54-1.79 1.33 0 2 6.21.77 6.21 4.74 0 1.78-1.27 3.31-4.13 3.31a5.83 5.83 0 0 1-4.38-1.7zM159.59 17.58v-6.45h1.9v6.4a2.72 2.72 0 1 0 5.44 0v-6.4h1.9v6.45c0 2.64-1.52 4.42-4.62 4.42s-4.62-1.78-4.62-4.42zM177.61 21.8l-2.35-4h-1.87v4h-1.87V11.13h4.69a3.25 3.25 0 0 1 3.54 3.34 3 3 0 0 1-2.54 3.14l2.54 4.19h-2.17zm.14-7.34a1.67 1.67 0 0 0-1.79-1.71h-2.58v3.39h2.58a1.69 1.69 0 0 0 1.79-1.68z"/></svg>