<svg xmlns="http://www.w3.org/2000/svg" viewBox="0 0 226.79 226.79"><defs><style>.a{fill:#fff;}.b{fill:#dedede;}.c{fill:#221e20;}</style></defs><title>mac</title><path class="a" d="M113.4 224.14A110.74 110.74 0 1 1 224.14 113.4 110.87 110.87 0 0 1 113.4 224.14z"/><path class="b" d="M113.4 5.32A108.08 108.08 0 1 1 5.32 113.4 108.2 108.2 0 0 1 113.4 5.32m0-5.32a113.4 113.4 0 1 0 113.4 113.4A113.39 113.39 0 0 0 113.4 0z"/><path class="c" d="M119.93 71.24a31.69 31.69 0 0 1-8 1.26c.21-7.59 2.11-14.12 5.9-19.6s10.12-9.27 19-11.17a4.78 4.78 0 0 1 .21.84 4.78 4.78 0 0 0 .21.84v1.69a28.21 28.21 0 0 1-2.11 10.33 30.59 30.59 0 0 1-7 10.54 22.55 22.55 0 0 1-8.21 5.27zm34.15 53.33a28.91 28.91 0 0 1-.42-32.67c1.69-2.53 4.64-5.48 8.64-9.06a44.22 44.22 0 0 0-8-7.59 27.29 27.29 0 0 0-16.23-4.85A42.78 42.78 0 0 0 125 72.93c-5.06 1.69-8.64 2.53-11 2.53-1.69 0-5.27-.84-10.54-2.32A53.08 53.08 0 0 0 90 70.82c-8.64 0-15.81 3.58-21.5 11s-8.64 16.86-8.64 28.45c0 12.22 3.79 25.08 11.17 38.15C78.62 161.45 86.21 168 94 168q3.79 0 10.12-2.53a29 29 0 0 1 10.75-2.53 31.07 31.07 0 0 1 11.38 2.53c4.64 1.69 8.22 2.53 10.54 2.53 6.53 0 13.07-5.06 19.6-15a71.65 71.65 0 0 0 9.27-19c-4-1.21-8-4.58-11.58-9.43z"/></svg>