<svg xmlns="http://www.w3.org/2000/svg" viewBox="0 0 139.08 164.5"><title>logo</title><path d="M50.84 28.37C49.1 22.28 44.72 14.64 35.74 2l-1.43-2-1.42 2c-2.42 3.4-4.45 6.37-6.21 9.06-1.74-2.65-3.75-5.59-6.14-8.95l-1.43-2-1.43 2C8.7 14.75 4.32 22.39 2.58 28.48.91 34.31 3.43 40.25 8.31 42a9.52 9.52 0 0 0 3.23.59c2.82 0 5.43-1.41 7.57-4.13q.23.29.49.58a8.91 8.91 0 0 0 2.61 2.24 8.67 8.67 0 0 0 7.69.72 8.87 8.87 0 0 0 4.45-3.59c2.93 3.69 6.73 4.93 10.75 3.48 4.9-1.75 7.41-7.69 5.74-13.52zm-15.2.11c-1.11-3.87-3.3-8.38-6.89-14.16 1.59-2.47 3.41-5.18 5.57-8.26 7.78 11.11 11.61 17.88 13.16 23.27 1.3 4.54-.79 8.27-3.55 9.27a6 6 0 0 1-2 .37c-2.82 0-4.8-2.41-6-4.5a12.92 12.92 0 0 0-.29-5.99zm-9-10.84a50.92 50.92 0 0 1 5.6 11.8 8.64 8.64 0 0 1-.51 6.49c-2 2.73-4.4 3.62-7.06 2.67a4.86 4.86 0 0 1-.88-.43 7.64 7.64 0 0 1-1.26-1.06 8.18 8.18 0 0 1-1.41-7.78 50.63 50.63 0 0 1 5.56-11.69zm-9.15 16.9c-1.52 2.7-4.14 5.57-8 4.17-2.77-1-4.85-4.73-3.55-9.27C7.49 24 11.32 17.28 19.11 6.17c2.12 3 3.93 5.7 5.5 8.15-3.55 5.74-5.72 10.21-6.82 14.05a12.87 12.87 0 0 0-.26 6.17z"/><path d="M65.49 1a19.81 19.81 0 1 0 19.8 19.81A19.83 19.83 0 0 0 65.49 1zm0 35.91a16.11 16.11 0 1 1 16.1-16.1 16.12 16.12 0 0 1-16.1 16.11z"/><path d="M98.77 1.18v29.9L85.23 1.02h-3.7v41.03h2.79l1.42-.04V12.2l13.44 29.83h3.79l.01-40.85h-4.21M123.62 95.8V79.31h13.54v-6.39h-13.54v-17.2l15.42.12.04-6.39-21.85-.15v52.9l21.84-.05-.01-6.39-15.44.04M10.64 95.71V49.3H4.25v52.8h24.51l-2.28-6.39H10.64M20.35 49.3l19.01 52.86h6.66L27.01 49.3h-6.66M73.31 49.3L59.23 89.31 44.73 49.3h-6.72l18.98 52.8h4.54l18.5-52.8h-6.72M105.17 80.58a15.4 15.4 0 0 0 7.94-13.69c0-5.19-1.64-9.73-4.5-12.46a18.35 18.35 0 0 0-9.88-4.68 71.73 71.73 0 0 0-11.45-.5h-3.67v53H90V86.11l15.77 16h8.93L96 83.35c2.89-.49 6.41-1.13 9.17-2.77zM90 55.74a47.2 47.2 0 0 1 7.7.31c3.5.66 4.76 1.39 6.25 2.78s2.78 4.72 2.78 8.06c0 4.2-2.06 7-6.69 9.23-2.24 1.06-7.11 1.46-10 1.58v-22zM19.8 133.65c-.63-.31-1.27-.58-1.83-.82l-.15-.06c-4-1.7-9.29-4.59-9.15-9.94.12-4.79 3.26-7.89 8-7.89s8.18 4.65 8.21 4.7l.35.48 5.28-3.79-.35-.49c-.22-.3-5.39-7.4-13.5-7.4-8.33 0-14.3 5.85-14.51 14.23C2 129.56 6.4 135 15.27 138.76l.17.07c.53.23 1 .44 1.51.67 6.37 3.1 9.33 6.18 9.32 9.7 0 5-4.29 8.81-9.94 8.81-6.31 0-10.45-6.35-10.49-6.42l-.32-.51L0 154.52l.32.48c.24.39 6 9.47 16 9.47 9.36 0 16.43-6.58 16.45-15.3.01-2.25.03-9.17-12.97-15.52zM76.3 109.1h-6.18l-11.23 41.58-11.11-41.14-.12-.44h-6.18l-8.8 54.05-.12.7h6.48l6.37-38.76 10.52 38.84h5.93l10.52-38.84 6.28 38.25.09.51h6.47L76.3 109.1M102.32 133.65c-.63-.31-1.27-.58-1.83-.82l-.15-.06c-4-1.7-9.29-4.59-9.15-9.94.12-4.79 3.26-7.89 8-7.89s8.18 4.65 8.21 4.7l.35.48 5.28-3.79-.35-.49c-.22-.3-5.39-7.4-13.5-7.4-8.33 0-14.3 5.85-14.51 14.23-.17 6.9 4.24 12.31 13.11 16.09l.15.06c.54.23 1.05.45 1.53.68 6.37 3.1 9.33 6.18 9.32 9.7 0 5-4.28 8.81-9.94 8.81a11.92 11.92 0 0 1-7.75-3.31l-.45-.41-4.3 4.89.45.4a18.26 18.26 0 0 0 12.06 4.94c9.36 0 16.43-6.58 16.45-15.3.01-2.3.02-9.22-12.98-15.57z"/></svg>