<svg xmlns="http://www.w3.org/2000/svg" viewBox="0 0 128.45 145.74"><title>usb</title><path d="M36.13 143.83a27.24 27.24 0 0 1-27.21-27.2V45.11h5.21v71.52a22 22 0 1 0 44 0V27.21a27.21 27.21 0 1 1 54.42 0V66h-5.21V27.21a22 22 0 1 0-44 0v89.42a27.24 27.24 0 0 1-27.21 27.2z"/><path d="M128.45 117.7h-37V76.58a13.91 13.91 0 0 1 13.89-13.88h9.22a13.91 13.91 0 0 1 13.89 13.89v41.11zm-31.8-5.2h26.59V76.58a8.69 8.69 0 0 0-8.68-8.68h-9.22a8.69 8.69 0 0 0-8.68 8.68v35.92zM15.62 45.13h-8a7.59 7.59 0 0 1-7.59-7.59V13.25h23.18v24.29a7.59 7.59 0 0 1-7.59 7.59zM98.47 120.74v25h23v-25h-23zm9 18h-4v-7h4v7zm9 0h-3v-7h3v7z"/><path d="M3.73 4.48h15.75v15.75H3.73z"/></svg>