<svg id="Calque_1" xmlns="http://www.w3.org/2000/svg" viewBox="0 0 98.9 98.9"><style>.st0{fill:#FFFFFF;} .st1{fill:#43AB45;}</style><title>Sans titre - 3</title><circle class="st0" cx="49.5" cy="49.5" r="49.5"/><path class="st1" d="M21.2 77.8l4.9-14.6c-7.9-13.2-3.5-30.2 9.7-38s30.2-3.5 38.1 9.7 3.5 30.2-9.7 38.1c-8.3 4.9-18.6 5.2-27.1.7l-15.9 4.1z"/><path class="st0" d="M67.7 58.3c-1.3-2.4-6-5.2-6-5.2-1.1-.6-2.4-.7-3 .4-.6.7-1.2 1.4-1.9 2.1-1.5 1.3-3.8 1.1-5.1-.4l-.1-.1-3.9-3.9-3.9-3.9c-1.5-1.2-1.8-3.5-.6-5l.1-.1c.7-.7 1.4-1.3 2.1-1.9 1.1-.6 1-1.9.4-3 0 0-2.8-4.7-5.2-6-1-.5-2.3-.4-3.1.5l-1.7 1.7c-5.4 5.4-2.8 11.6 2.7 17l5 5 5 5c5.4 5.4 11.6 8.1 17 2.7l1.7-1.7c.9-.9 1-2.2.5-3.2z"/></svg>