<svg xmlns="http://www.w3.org/2000/svg" viewBox="0 0 98.93 98.93"><defs><style>.a{fill:#f1f1f1;}.b{fill:#43ab45;}.c{fill:#fff;}</style></defs><title>Sans titre - 3</title><circle class="a" cx="49.46" cy="49.46" r="49.46"/><path class="b" d="M21.2 77.81l4.86-14.58A27.78 27.78 0 1 1 37 73.64z"/><path class="c" d="M67.67 58.3c-1.28-2.42-6-5.2-6-5.2-1.07-.61-2.36-.68-3 .41a24.5 24.5 0 0 1-1.93 2.11 3.59 3.59 0 0 1-5.11-.51l-3.88-3.88-3.88-3.88a3.59 3.59 0 0 1-.51-5.11 24.5 24.5 0 0 1 2.11-1.93c1.09-.61 1-1.9.41-3 0 0-2.77-4.73-5.2-6a2.66 2.66 0 0 0-3.12.47l-1.71 1.71c-5.44 5.44-2.76 11.57 2.68 17l5 5 5 5c5.44 5.44 11.57 8.11 17 2.68l1.71-1.71a2.66 2.66 0 0 0 .43-3.16z"/></svg>