<svg xmlns="http://www.w3.org/2000/svg" viewBox="0 0 226.79 226.79"><defs><style>.a{fill:#fff;}.b{fill:#dedede;}.c{fill:#1691d7;}</style></defs><title>windows</title><path class="a" d="M113.4 224.13a110.74 110.74 0 1 1 110.74-110.74A110.87 110.87 0 0 1 113.4 224.13z"/><path class="b" d="M113.4 5.31A108.08 108.08 0 1 1 5.28 113.39 108.2 108.2 0 0 1 113.4 5.31m0-5.32a113.4 113.4 0 1 0 113.4 113.4A113.39 113.39 0 0 0 113.4 0z"/><path class="c" d="M102.55 63.1l63.38-9.32v55.92h-63.38V63.1M46.62 71.31l48.47-7.11v45.5H46.62V71.31M102.55 163.77l63.38 9.32v-55.93h-63.38v46.61M46.62 155.55l48.47 7.11v-45.5H46.62v38.39"/></svg>